<?xml version="1.0" encoding="UTF-8"?>
<svg xmlns="http://www.w3.org/2000/svg" width="1400" height="360" viewBox="0 0 1400 360" role="img" aria-label="اکوسیستم اینترنت اشیا">
  <defs>
    <filter id="shadow" x="-10%" y="-10%" width="130%" height="140%">
      <feDropShadow dx="0" dy="4" stdDeviation="3.5" flood-color="#64748B" flood-opacity="0.28"/>
    </filter>
  </defs>
  <rect width="1400" height="360" fill="#FFFFFF"/>
  <g font-family="B Nazanin" font-weight="700" font-size="34" text-anchor="middle">
    <g filter="url(#shadow)">
      <rect x="60" y="110" width="290" height="140" rx="18" fill="#DCFCE7" stroke="#16A34A" stroke-width="4"/>
      <text x="205" y="195" fill="#111827">گره‌های حسگر</text>
    </g>
    <g filter="url(#shadow)">
      <rect x="390" y="110" width="290" height="140" rx="18" fill="#DBEAFE" stroke="#2563EB" stroke-width="4"/>
      <text x="535" y="195" fill="#111827">گیت‌وی</text>
    </g>
    <g filter="url(#shadow)">
      <rect x="720" y="110" width="290" height="140" rx="18" fill="#FFEDD5" stroke="#EA580C" stroke-width="4"/>
      <text x="865" y="195" fill="#111827">پلتفرم ابری</text>
    </g>
    <g filter="url(#shadow)">
      <rect x="1050" y="110" width="290" height="140" rx="18" fill="#F3E8FF" stroke="#7C3AED" stroke-width="4"/>
      <text x="1195" y="195" fill="#111827">کاربران و برنامه‌ها</text>
    </g>
  </g>
  <g fill="#111827" stroke="#111827" stroke-width="4">
    <line x1="358" y1="180" x2="376" y2="180"/>
    <polygon points="390,180 376,171 376,189"/>
    <line x1="688" y1="180" x2="706" y2="180"/>
    <polygon points="720,180 706,171 706,189"/>
    <line x1="1018" y1="180" x2="1036" y2="180"/>
    <polygon points="1050,180 1036,171 1036,189"/>
  </g>
</svg>
